# xmcd CD database file
#
# Track frame offsets:
#	150
#	10392
#	24700
#	41295
#	65325
#	82502
#	95922
#	132110
#	147645
#	159967
#	176482
#	194225
#	211470
#	222515
#	233852
#	251959
#	264815
#	280347
#
# Disc length: 4155 seconds
#
# Revision: 0
# Processed by: cddbd v1.5.2PL0 Copyright (c) Steve Scherf et al.
# Submitted via: CDex 1.70beta2
#
DISCID=0a103912
DTITLE=Joe Quijano y su Conjunto Cachana - Son montuno y cha-cha-cha
DYEAR=1998
DGENRE=Salsa
TTITLE0=Valentin's Cha cha cha
TTITLE1=Echa pa'lante (son montuno)
TTITLE2=Yo soy el cubano (son montuno, guajira)
TTITLE3=Pa'la Habana (son montuno)
TTITLE4=Ya es muy tarde, corazon (guajira cha)
TTITLE5=La vida es un sueno (bolero son/cha)
TTITLE6=En Mayaguez (cha cha son)
TTITLE7=Pedro y Quijano (danzon cha)
TTITLE8=Chachumbele (afro son)
TTITLE9=No me dejes (guajira cha)
TTITLE10=Negrito (afro son)
TTITLE11=Salieron pocos (son montuno)
TTITLE12=Avenida 486 (danzon cha)
TTITLE13=Malagradecida (cha cha cha)
TTITLE14=El enamorao (danzon cha)
TTITLE15=Que lind manita (danzon cha)
TTITLE16=Historia de un condenando (guajira son)
TTITLE17=La paella, desengano cruel (son montuno)
EXTD=YEAR: 1998
EXTT0=
EXTT1=
EXTT2=
EXTT3=
EXTT4=
EXTT5=
EXTT6=
EXTT7=
EXTT8=
EXTT9=
EXTT10=
EXTT11=
EXTT12=
EXTT13=
EXTT14=
EXTT15=
EXTT16=
EXTT17=
PLAYORDER=
